PathFileType	4	(X/Y/Z)	C:\Users\WrightLab\Desktop\Jo\P4V12.trc
DataRate	CameraRate	NumFrames	NumMarkers	Units	OrigDataRate	OrigDataStartFrame	OrigNumFrames
100.00	100.00	       21	19	mm	100.00	452	       602
Frame#	Time	Headset_Front			Headset_Back			Headset_Left			Headset_Right			Left_Shoulder			Right_Shoulder			Sternum			C7			Left Elbow			Right Elbow			Left Wrist			Right Wrist			Left ASIS			Right ASIS			S2			Left Knee			Right Knee			Left Ankle			Right Ankle			
		X1	Y1	Z1	X2	Y2	Z2	X3	Y3	Z3	X4	Y4	Z4	X5	Y5	Z5	X6	Y6	Z6	X7	Y7	Z7	X8	Y8	Z8	X9	Y9	Z9	X10	Y10	Z10	X11	Y11	Z11	X12	Y12	Z12	X13	Y13	Z13	X14	Y14	Z14	X15	Y15	Z15	X16	Y16	Z16	X17	Y17	Z17	X18	Y18	Z18	X19	Y19	Z19	

452	4.510	-517.31073	1782.26294	-1013.33551	-562.10754	1690.59070	-1159.68286							-627.45148	1500.20764	-1113.11279	-389.40906	1525.95056	-946.80206	-449.52536	1440.45947	-1120.24109				-746.76892	1141.11792	-1158.45349	-164.58304	925.07336	-1051.13220	-288.80469	1018.05646	-987.23035	-227.33679	1176.49341	-887.80316	-549.33661	1032.46191	-920.48468	-647.01093	861.50897	-1261.18762				-534.02399	552.98987	-1261.89453	-325.88297	526.99329	-998.93866	-648.85986	169.82167	-947.03546	-439.06039	38.02950	-941.81293	
453	4.520	-513.90894	1782.13306	-1020.11438	-558.56000	1690.64441	-1166.64551							-623.66760	1500.35266	-1120.66150	-385.44965	1525.80066	-953.22906	-445.73218	1440.22998	-1127.38733				-743.16992	1141.21802	-1164.74683				-284.85269	1017.00500	-991.51154	-219.48633	1176.72327	-897.05566	-546.79266	1032.24329	-927.49634	-644.19012	861.84930	-1267.55017				-525.31659	554.96808	-1272.95178	-323.94553	526.54999	-1002.12732	-636.40491	156.24799	-974.50232	-438.85175	38.57390	-941.99335	
454	4.530	-510.50659	1781.93152	-1027.14368	-554.97699	1690.64636	-1173.61609							-619.93976	1500.31848	-1128.89722	-381.39093	1525.93591	-960.36145	-442.00656	1440.31628	-1135.10901				-740.11639	1140.65735	-1170.76526				-281.19388	1018.01837	-1000.73407	-214.54895	1178.01208	-908.21539	-544.13745	1032.98267	-935.52545	-641.53955	861.51959	-1273.41638				-516.77795	557.32910	-1284.04321	-322.38626	526.71497	-1005.47919	-623.42810	144.93936	-998.17230	-439.46439	38.81470	-941.99817	
455	4.540	-507.03116	1781.85327	-1034.18921	-551.27576	1690.76587	-1180.79150							-616.23462	1500.22729	-1136.31116	-377.40964	1525.83032	-967.87921	-438.28082	1440.09094	-1142.21741				-738.02783	1141.05298	-1176.47668				-277.89548	1017.21472	-1005.82166	-209.13234	1178.26904	-917.29675	-540.96344	1032.37170	-942.83044	-638.64844	861.48602	-1279.15979				-508.72037	558.66394	-1293.13306	-322.74533	525.97321	-1008.78149	-610.24133	137.23494	-1018.19836	-439.48276	38.83144	-942.01440	
456	4.550				-547.55566	1690.83081	-1188.41077							-612.39996	1500.17236	-1144.16455	-373.32053	1525.63379	-975.15204	-434.46786	1439.87280	-1149.75085				-734.84528	1141.14343	-1183.39368				-274.57996	1015.50012	-1009.48553	-202.96065	1178.61768	-925.35114	-539.09595	1033.95459	-950.44055	-635.55658	861.84399	-1285.47839				-501.06778	559.95874	-1302.94714	-319.28207	525.63721	-1011.77039	-596.95984	118.94489	-1058.22546	-439.71506	38.57135	-942.40460	
457	4.560	-500.03174	1781.27563	-1048.53687	-543.93219	1690.54541	-1195.49963							-608.59259	1499.89587	-1150.91528	-369.22308	1525.35913	-982.32544	-430.63864	1439.95728	-1157.19189				-731.57324	1140.76282	-1189.21655				-270.95578	1016.21252	-1016.96875	-196.89963	1178.95435	-937.61566	-536.85327	1032.34363	-959.18988	-632.57709	861.77887	-1291.81299				-494.05954	560.55444	-1311.17603	-317.41693	525.18964	-1016.09473	-583.11804	108.29596	-1083.75769	-439.86899	38.74695	-942.44299	
458	4.570	-496.57742	1780.82080	-1055.60803	-540.27313	1690.12451	-1202.86670							-604.89960	1499.67126	-1158.60889	-364.90939	1525.04199	-989.62128	-427.01089	1439.59326	-1164.78210				-729.11646	1141.13269	-1195.70471				-267.80417	1016.91772	-1025.93628	-192.16219	1179.84631	-946.65961	-533.04028	1030.48425	-970.75043	-629.55396	861.35400	-1297.32483							-316.46570	524.66071	-1019.04419	-568.39551	98.07795	-1109.60754	-440.21024	38.66564	-942.78760	
459	4.580	-493.14960	1780.35669	-1062.77991	-536.50232	1689.80188	-1210.22607							-601.12518	1499.77637	-1166.41211	-360.66437	1524.48572	-996.93140	-423.25116	1439.29456	-1172.38220				-725.40204	1141.05811	-1202.67053				-264.85358	1015.86743	-1033.13000	-185.74045	1179.76709	-957.28156	-530.17181	1030.92212	-980.71863	-626.20642	861.57953	-1303.42065							-314.57257	524.22803	-1022.47003	-552.15253	85.76803	-1140.48425	-440.21912	38.69331	-942.80231	
460	4.590				-532.80530	1689.32031	-1217.63110							-597.51129	1499.45264	-1173.97449	-356.48056	1523.56409	-1003.39728	-419.55865	1438.78870	-1179.27722				-722.08301	1140.53699	-1208.86743				-261.09064	1015.37408	-1040.98120	-180.56554	1180.64270	-965.74976	-527.23920	1028.83533	-989.24646										-313.68076	523.69025	-1026.48291	-537.73236	74.59235	-1165.54480	-440.03256	38.78143	-943.51349	
461	4.600				-529.05811	1688.65063	-1224.77795							-593.72009	1499.09497	-1181.19849	-352.04413	1522.95776	-1010.52222	-415.98529	1438.37549	-1186.95044				-720.08319	1140.79358	-1215.40710				-257.49161	1014.86163	-1049.72754	-172.72147	1182.03479	-972.58606	-524.35120	1031.10583	-993.19635										-312.35287	523.41394	-1029.52661				-439.75882	39.01497	-943.76129	
462	4.610				-525.34229	1688.09387	-1232.16577							-590.01337	1498.77881	-1188.34802	-347.87787	1522.11279	-1017.85632	-412.41064	1437.84119	-1194.86401				-716.57019	1140.63062	-1222.73096				-253.65166	1013.95050	-1055.91382	-168.45892	1182.33447	-982.88965	-519.74152	1029.97253	-1001.21130										-309.96576	523.21539	-1033.80591				-440.03769	38.82060	-943.52997	
463	4.620				-521.74921	1687.28394	-1239.97266							-586.49805	1498.27991	-1195.59058	-343.59747	1521.22375	-1025.53748	-408.78195	1437.48584	-1202.11670				-712.92731	1139.58752	-1229.40747				-250.08629	1013.58698	-1063.38440	-163.17653	1182.00220	-992.55475	-515.03491	1029.07422	-1008.86169										-308.80722	522.79181	-1037.22986				-439.59354	39.30018	-943.78961	
464	4.630				-518.06921	1686.69385	-1247.25928							-582.98633	1497.83582	-1203.54761	-339.38004	1520.27185	-1032.62793	-405.38718	1436.55286	-1209.84644				-710.01001	1138.91772	-1235.64758				-246.37791	1012.85986	-1072.15894	-158.86739	1181.70337	-1001.24982	-511.50897	1028.39795	-1019.96539										-306.34845	522.10291	-1041.43298				-439.30054	39.31450	-943.97052	
465	4.640				-514.44073	1685.70410	-1254.61316							-579.65741	1496.84778	-1211.38940	-335.21490	1519.16516	-1040.30481	-401.92081	1435.72668	-1217.37415				-707.02844	1138.74854	-1243.22388				-242.70763	1011.52209	-1079.57227	-154.29036	1180.66089	-1009.10315	-507.72733	1026.24438	-1032.04285										-305.04492	520.72906	-1046.66455				-439.22723	39.54612	-944.33344	
466	4.650	-469.65704	1774.97473	-1113.98865	-510.92139	1684.75549	-1262.47827							-576.18005	1495.88464	-1218.59937	-331.15851	1517.78369	-1047.60913	-398.45511	1435.00464	-1225.38611				-703.68610	1137.75671	-1250.44421				-238.67593	1011.01990	-1088.52319	-150.12425	1180.38098	-1019.62476	-502.79831	1024.82703	-1042.90247							-603.71674	859.21515	-1351.27771	-302.27350	520.31079	-1050.90430	-441.52078	26.98680	-1342.89893	-439.71814	39.76261	-945.05603	
467	4.660	-466.53497	1773.55847	-1121.15051	-507.47025	1683.56812	-1269.62573							-572.72797	1495.08545	-1226.36877	-327.03247	1516.42444	-1054.49585	-395.14435	1433.96021	-1233.11694				-700.72583	1136.98254	-1257.57117				-234.53271	1009.11761	-1095.79138	-146.10423	1179.55115	-1028.75574	-499.14392	1025.30530	-1048.51550							-600.83765	857.88300	-1358.28455	-300.95364	518.87317	-1056.27356	-426.47424	26.62726	-1364.55444	-439.73111	39.77110	-945.06641	
468	4.670	-463.37326	1772.26855	-1128.59778	-504.01166	1682.39722	-1276.96729							-569.32611	1493.59106	-1233.67273	-323.11932	1514.79041	-1062.00635	-391.72815	1433.08411	-1241.19238				-697.70935	1135.69641	-1265.23669				-231.81712	1008.22156	-1106.52710	-142.03427	1178.20886	-1037.58801	-494.67822	1023.08002	-1056.31067							-597.62927	857.37555	-1366.57849	-298.46768	518.09216	-1060.74365				-440.30069	40.10779	-946.08862	
469	4.680	-460.35733	1770.61169	-1135.64148										-566.15741	1492.05042	-1241.18481				-388.42697	1431.73560	-1248.72351				-694.76825	1134.51855	-1272.73425				-227.80667	1006.21936	-1113.67834	-138.88855	1177.18823	-1046.39124	-492.39227	1023.06281	-1059.38672							-594.86639	855.62219	-1373.77979	-296.44946	517.63757	-1065.19397				-440.25003	40.80930	-946.14368	
470	4.690	-457.48022	1769.13354	-1143.13159										-562.85547	1490.38440	-1247.96045				-384.97519	1430.54590	-1255.94519				-691.33679	1133.18323	-1280.16663				-223.79642	1004.61963	-1121.02979	-135.00174	1175.89478	-1056.12500										-591.66974	854.37921	-1381.03174	-293.91168	516.94525	-1071.14636				-439.81821	41.54300	-946.35095	
471	4.700	-454.61011	1767.59082	-1150.23962										-559.51477	1489.25708	-1257.01135				-381.68005	1429.32043	-1264.37976				-688.16199	1131.46021	-1288.04272				-219.63882	1003.79968	-1130.29602	-134.23720	1171.56042	-1072.59827													-291.38434	515.31799	-1076.31726				-440.15970	42.22254	-946.15515	
472	4.710	-451.83383	1765.81531	-1157.57690										-556.39496	1487.35242	-1264.74512				-378.41617	1427.72278	-1271.83911				-685.09198	1129.61426	-1295.93018				-215.92622	1002.47394	-1139.42200	-128.17447	1172.68359	-1073.73633													-288.85843	514.65314	-1081.21057				-440.66083	43.49816	-947.00867	
